<svg xmlns="http://www.w3.org/2000/svg" xmlns:xlink="http://www.w3.org/1999/xlink" width="0" height="0" style="position:absolute">
	
		<symbol id="smart_back" viewBox="0 0 477.175 477.175">
			<path d="M145.188 238.575l215.5-215.5c5.3-5.3 5.3-13.8 0-19.1s-13.8-5.3-19.1 0l-225.1 225.1c-5.3 5.3-5.3 13.8 0 19.1l225.1 225c2.6 2.6 6.1 4 9.5 4s6.9-1.3 9.5-4c5.3-5.3 5.3-13.8 0-19.1l-215.4-215.5z"></path>
		</symbol>
	
		<symbol id="smart_icon1" viewBox="0 0 100 100">
			<style>.st0{fill:#08465e}.st1{fill:#fff}</style><circle class="st0" cx="44.29" cy="50.47" r="44.29"></circle><path class="st1" d="M48.95 32.07H66.8a.58.58 0 0 0 0-1.16H48.95a.58.58 0 0 0 0 1.16zm0 7.55h22.91a.58.58 0 0 0 0-1.16H48.95a.58.58 0 0 0 0 1.16zm34.04 23.04a.58.58 0 0 0-.58-.58H48.95a.58.58 0 0 0 0 1.16H82.4c.32.01.59-.25.59-.58zM48.95 56H82.4a.58.58 0 0 0 0-1.16H48.95a.58.58 0 0 0 0 1.16zm0-7.55H82.4a.58.58 0 0 0 0-1.16H48.95a.58.58 0 0 0-.58.58c0 .31.26.58.58.58z"></path><path class="st1" d="M92.83 71.18V42.07c.26-.06.46-.28.46-.56 0-.21-.11-.39-.27-.49L76 24h-.01l-.43-.43a.583.583 0 0 0-.41-.17h-34.1a.58.58 0 0 0-.58.58v63.24c0 .32.26.58.58.58h35.91c2.02 3.92 6.11 6.62 10.82 6.62 6.71 0 12.17-5.46 12.17-12.18 0-4.91-2.92-9.14-7.12-11.06zM76.17 25.82l15.1 15.11h-15.1V25.82zm.25 60.82H41.64V24.56h33.27l.09.09v16.86c0 .32.26.58.58.58h16.08V70.7c-.04-.01-.09-.02-.13-.04-.13-.04-.26-.08-.4-.12-.24-.07-.47-.13-.71-.18-.12-.03-.25-.05-.37-.08-.26-.05-.53-.09-.8-.12-.11-.01-.22-.03-.33-.04-.38-.04-.76-.06-1.14-.06-6.71 0-12.17 5.46-12.17 12.17 0 .4.02.8.06 1.2.01.11.03.21.04.32.04.29.08.57.13.86.02.13.06.25.09.37.06.25.12.51.2.76.04.14.09.28.14.42.05.16.09.32.15.48zm11.36 6.61c-4.49 0-8.35-2.71-10.06-6.57-.08-.19-.16-.38-.23-.58-.06-.16-.13-.32-.18-.49-.06-.19-.11-.38-.16-.57-.05-.18-.1-.35-.14-.53-.04-.21-.07-.42-.1-.63-.02-.16-.06-.32-.08-.49-.04-.38-.06-.77-.06-1.15 0-6.07 4.94-11.01 11.01-11.01.38 0 .75.02 1.11.06.09.01.18.03.26.04.28.03.55.07.82.13.19.04.38.09.57.14.16.04.32.07.47.12.34.11.68.23 1.01.37h.01c3.96 1.67 6.75 5.59 6.75 10.15.01 6.07-4.93 11.01-11 11.01z"></path><path class="st1" d="M92.42 80.33l-5.74 2.65-3.53-1.66a.588.588 0 0 0-.78.28c-.14.29-.01.64.28.78l3.77 1.78c.08.04.16.06.25.06.08 0 .17-.02.24-.05l5.99-2.76a.59.59 0 0 0 .29-.77.574.574 0 0 0-.77-.31z"></path>
		</symbol>
	
		<symbol id="smart_icon2" viewBox="0 0 100 100">
			<style>.st0{fill:#08465e}.st1{fill:#fff}</style><circle class="st0" cx="44.29" cy="50.47" r="44.29"></circle><path class="st1" d="M96.13 34.42H82.47l1.55-1.24c.22-.18.28-.5.14-.74l-1.12-1.94a.589.589 0 0 0-.72-.25l-3.67 1.44c-.37-.43-.76-.83-1.2-1.2l1.45-3.66c.11-.27 0-.57-.25-.72L76.72 25a.598.598 0 0 0-.75.14l-2.45 3.08c-.55-.19-1.1-.34-1.63-.44l-.59-3.9a.58.58 0 0 0-.57-.49h-2.24c-.29 0-.53.21-.57.49l-.58 3.89c-.54.1-1.08.24-1.63.44l-2.45-3.08a.598.598 0 0 0-.75-.14l-1.94 1.12c-.25.14-.36.45-.25.72l1.44 3.66c-.44.39-.84.78-1.2 1.2l-3.66-1.44c-.27-.11-.57 0-.72.25l-1.12 1.94c-.14.25-.08.57.14.75l1.55 1.24h-13.3c-2.14 0-3.87 1.73-3.87 3.86v37.95a3.87 3.87 0 0 0 3.87 3.86h18.84l-2.51 9.53h-5.67a.58.58 0 0 0-.58.58v3.36c0 .32.26.58.58.58h31.33c.32 0 .58-.26.58-.58v-3.36a.58.58 0 0 0-.58-.58h-5.66l-2.51-9.53h18.84c2.13 0 3.86-1.73 3.86-3.86V38.29c.03-2.13-1.71-3.87-3.84-3.87zm-39.19-2.9l3.59 1.41c.24.09.51.02.67-.18.46-.58.99-1.11 1.63-1.63.2-.16.27-.43.17-.66l-1.41-3.59 1.07-.62 2.4 3.01c.16.2.43.27.66.18.77-.29 1.49-.49 2.21-.59.26-.04.46-.23.49-.49l.57-3.82h1.24l.58 3.82c.04.25.24.45.49.49.71.1 1.46.3 2.21.59.24.09.5.02.66-.18l2.4-3.01 1.07.62-1.41 3.59a.59.59 0 0 0 .18.67c.61.5 1.15 1.03 1.62 1.63.16.2.43.27.67.18l3.59-1.41.62 1.07-3.01 2.39c-.2.16-.28.43-.19.67.28.73.48 1.46.6 2.23.04.25.24.45.49.48l3.81.57v1.23l-3.81.58c-.25.04-.45.23-.49.48-.13.78-.33 1.52-.6 2.22a.59.59 0 0 0 .18.67l3.01 2.4-.62 1.06-3.6-1.41a.59.59 0 0 0-.66.17c-.52.64-1.07 1.18-1.62 1.62a.59.59 0 0 0-.18.67l1.41 3.59-1.07.62-2.4-3.01a.579.579 0 0 0-.66-.18c-.69.26-1.43.46-2.22.59-.25.04-.44.24-.48.49l-.58 3.81h-1.24l-.57-3.81a.584.584 0 0 0-.48-.49c-.8-.13-1.52-.32-2.22-.59a.57.57 0 0 0-.66.18l-2.4 3.01-1.07-.62 1.41-3.59a.59.59 0 0 0-.18-.67 11.41 11.41 0 0 1-1.63-1.63.56.56 0 0 0-.66-.17l-3.58 1.41-.62-1.07 3.02-2.41c.2-.16.27-.43.18-.67-.28-.73-.48-1.47-.6-2.22a.595.595 0 0 0-.49-.49l-3.81-.57v-1.23l3.81-.57c.25-.04.45-.24.49-.49.11-.74.31-1.47.6-2.23a.59.59 0 0 0-.18-.67l-3.01-2.39.61-1.04zm-16.2 6.77c0-1.49 1.22-2.7 2.71-2.7h14.77l.07.05c-.19.55-.34 1.09-.44 1.64l-3.89.58a.58.58 0 0 0-.49.57v2.23c0 .29.21.53.49.57l3.89.58c.11.55.25 1.1.44 1.63l-3.08 2.46c-.22.18-.28.5-.14.75l1.12 1.94c.14.25.45.36.72.25l3.66-1.45c.38.43.78.83 1.19 1.2l-1.44 3.66c-.11.27 0 .57.25.72l1.94 1.12c.25.14.57.08.75-.14l2.45-3.07c.52.18 1.06.32 1.63.43l.59 3.89c.04.28.29.49.57.49h2.24c.29 0 .53-.21.57-.49l.59-3.89c.57-.11 1.11-.25 1.63-.43l2.45 3.07c.18.22.5.29.75.14l1.94-1.12c.25-.14.36-.45.25-.72l-1.44-3.66c.41-.35.81-.75 1.19-1.2l3.67 1.44c.27.1.57 0 .71-.25l1.12-1.93c.14-.25.08-.57-.14-.75l-3.08-2.46c.18-.53.33-1.07.44-1.63l3.89-.59a.58.58 0 0 0 .49-.57v-2.23c0-.29-.21-.53-.49-.57l-3.89-.59c-.11-.55-.25-1.1-.44-1.64l.07-.05h15.12c1.49 0 2.7 1.21 2.7 2.7v31.59a2.2 2.2 0 0 1-2.2 2.2H42.93c-1.21 0-2.2-.99-2.2-2.2V38.29zM76.09 80.1l2.51 9.53H60.99l2.51-9.53h12.59zm8.78 12.89H54.7v-2.2h30.17v2.2zm13.96-16.76c0 1.49-1.21 2.7-2.7 2.7H43.44c-1.5 0-2.71-1.21-2.71-2.7v-3.81c.06.05.12.09.18.13.07.05.14.11.21.15.1.07.22.12.33.18.07.04.15.08.22.11.13.05.26.09.4.12.07.02.13.04.21.06.21.04.42.07.65.07h53.71c.22 0 .44-.02.65-.07.07-.01.14-.04.21-.06.14-.04.27-.07.4-.12.08-.03.15-.07.22-.11.11-.06.22-.11.33-.18l.21-.15c.06-.05.13-.09.19-.14v3.82z"></path><path class="st1" d="M69.79 74.26c-1 0-1.82.82-1.82 1.83 0 1 .82 1.81 1.82 1.81s1.82-.81 1.82-1.81c0-1.01-.82-1.83-1.82-1.83zm0 2.48c-.36 0-.66-.29-.66-.65 0-.37.3-.67.66-.67.37 0 .66.29.66.67-.01.37-.3.65-.66.65zm-.18-30.88c3.47 0 6.3-2.83 6.3-6.3 0-3.47-2.83-6.3-6.3-6.3-3.47 0-6.29 2.83-6.29 6.3 0 3.47 2.82 6.3 6.29 6.3zm0-11.44c2.83 0 5.14 2.31 5.14 5.14 0 2.83-2.31 5.14-5.14 5.14-2.83 0-5.13-2.31-5.13-5.14 0-2.84 2.3-5.14 5.13-5.14zM46.33 64.97h4.57c.32 0 .58-.26.58-.58v-.69h13.05v1.96c0 .32.26.58.58.58h9.01c.32 0 .58-.26.58-.58V63.7h13.03v.69c0 .32.26.58.58.58h4.56c.32 0 .58-.26.58-.58v-2.57a.58.58 0 0 0-.58-.58h-4.56a.58.58 0 0 0-.58.58v.71H74.71v-1.96a.58.58 0 0 0-.58-.58h-9.01a.58.58 0 0 0-.58.58v1.96H51.48v-.71a.58.58 0 0 0-.58-.58h-4.57a.58.58 0 0 0-.58.58v2.57c0 .32.26.58.58.58zM88.9 62.4h3.4v1.41h-3.4V62.4zm-23.21-1.25h7.85v3.92h-7.85v-3.92zM46.91 62.4h3.4v1.41h-3.4V62.4z"></path>
		</symbol>
	
		<symbol id="smart_icon3" viewBox="0 0 100 100">
			<style>.st0{fill:#08465e}.st1{fill:#fff}</style><circle class="st0" cx="44.29" cy="50.47" r="44.29"></circle><path class="st1" d="M64.83 74.76c6.53 0 11.83-5.31 11.83-11.84a.58.58 0 0 0-1.16 0c0 5.88-4.79 10.67-10.67 10.67S54.16 68.8 54.16 62.92a.58.58 0 0 0-1.16 0c-.01 6.53 5.3 11.84 11.83 11.84z"></path><path class="st1" d="M95.48 62.34a.58.58 0 0 0-.58.58v1.69l-7.98 1.2c-.25.04-.45.24-.49.49-.23 1.52-.64 3.03-1.2 4.48a.59.59 0 0 0 .18.67l6.31 5.03-1.7 2.94-7.51-2.95a.594.594 0 0 0-.67.18c-.98 1.21-2.09 2.32-3.29 3.29a.59.59 0 0 0-.18.67l2.95 7.5-2.94 1.7-5.02-6.3a.579.579 0 0 0-.66-.18c-1.45.55-2.96.96-4.5 1.2-.25.04-.45.24-.49.49l-1.2 7.97h-3.39l-1.2-7.97a.583.583 0 0 0-.49-.49c-1.54-.24-3.05-.65-4.5-1.2a.57.57 0 0 0-.66.18l-5.02 6.3-2.94-1.7 2.95-7.5a.59.59 0 0 0-.18-.67c-1.19-.97-2.3-2.08-3.29-3.29a.59.59 0 0 0-.67-.18l-7.51 2.95-1.7-2.94 6.31-5.02c.2-.16.27-.43.18-.67-.56-1.46-.97-2.98-1.2-4.5a.595.595 0 0 0-.49-.49l-7.98-1.19v-1.7a.58.58 0 0 0-1.16 0v2.21c0 .29.21.53.5.58l8.05 1.2c.23 1.32.58 2.63 1.05 3.91l-6.37 5.07c-.23.18-.29.5-.14.75l2.2 3.81c.14.25.45.35.72.25l7.58-2.98c.88 1.04 1.83 2 2.86 2.86l-2.98 7.58c-.11.27 0 .57.25.72l3.81 2.21c.25.14.57.08.75-.14l5.07-6.37c1.26.46 2.57.8 3.91 1.04l1.21 8.05c.04.29.29.5.58.5h4.4c.29 0 .53-.21.58-.5l1.21-8.05a23 23 0 0 0 3.91-1.04l5.07 6.37c.18.23.5.29.75.14l3.81-2.21c.25-.14.36-.45.25-.72l-2.98-7.58c1.03-.86 1.99-1.82 2.86-2.86l7.58 2.98c.27.11.57 0 .72-.25l2.2-3.81c.14-.25.08-.57-.14-.75l-6.37-5.08c.47-1.27.82-2.58 1.05-3.9l8.05-1.21c.29-.04.5-.29.5-.58v-2.2a.594.594 0 0 0-.59-.57zm3.94-4.55H45.36a3.47 3.47 0 0 0-3.41-2.88 3.47 3.47 0 0 0-3.41 2.88h-8.32a.58.58 0 0 0 0 1.16h8.32a3.462 3.462 0 0 0 3.41 2.88 3.47 3.47 0 0 0 3.41-2.88h54.05c.32 0 .58-.26.58-.58a.566.566 0 0 0-.57-.58zm-57.46 2.89a2.3 2.3 0 1 1 2.3-2.3c0 1.26-1.03 2.3-2.3 2.3zm57.46-13.46H58.25a3.46 3.46 0 0 0-3.41-2.87 3.47 3.47 0 0 0-3.41 2.87h-21.2a.58.58 0 0 0 0 1.16h21.2a3.461 3.461 0 0 0 3.41 2.89c1.71 0 3.13-1.25 3.41-2.89h41.17a.58.58 0 0 0 0-1.16zm-44.58 2.89c-1.27 0-2.3-1.04-2.3-2.31 0-1.26 1.03-2.29 2.3-2.29 1.27 0 2.3 1.03 2.3 2.29 0 1.27-1.03 2.31-2.3 2.31zm44.58-13.46H79.65a3.47 3.47 0 0 0-3.41-2.88 3.47 3.47 0 0 0-3.41 2.88h-42.6a.58.58 0 0 0 0 1.16h42.6a3.47 3.47 0 0 0 3.41 2.88 3.47 3.47 0 0 0 3.41-2.88h19.77a.58.58 0 0 0 0-1.16zm-23.18 2.89a2.3 2.3 0 1 1 2.3-2.3c0 1.26-1.03 2.3-2.3 2.3zm-46-12.3H54.5c.28 1.64 1.7 2.89 3.41 2.89 1.71 0 3.13-1.25 3.41-2.89h38.11a.58.58 0 0 0 0-1.16H61.31a3.46 3.46 0 0 0-6.82 0H30.24a.58.58 0 0 0-.58.58c-.01.32.25.58.58.58zm27.66-2.87c1.27 0 2.3 1.03 2.3 2.29 0 1.27-1.03 2.31-2.3 2.31-1.27 0-2.3-1.04-2.3-2.31 0-1.26 1.03-2.29 2.3-2.29z"></path>
		</symbol>
	
		<symbol id="smart_icon4" viewBox="0 0 100 100">
			<style>.st0{fill:#08465e}.st1{fill:#fff}</style><circle class="st0" cx="44.29" cy="50.47" r="44.29"></circle><path class="st1" d="M100 55.26c0-.22-.12-.42-.32-.51l-13.77-6.88 13.77-6.89c.19-.1.32-.3.32-.51 0-.22-.12-.42-.32-.51L65.35 22.78a.572.572 0 0 0-.51 0L30.5 39.96c-.19.1-.32.3-.32.51 0 .22.12.42.32.51l13.78 6.89-13.78 6.88c-.19.1-.32.3-.32.51 0 .22.12.42.32.51l13.77 6.89-13.77 6.89c-.19.1-.32.3-.32.51 0 .22.12.42.32.51l34.34 17.16a.583.583 0 0 0 .52 0l34.33-17.16c.19-.1.32-.3.32-.51 0-.22-.12-.42-.32-.51l-13.77-6.89 13.77-6.89a.56.56 0 0 0 .31-.51zm-34.91 1.73l-7.86-3.93 33.01-16.55 7.9 3.95-33.05 16.53zm15.16-25.47L47.83 48.37l-7.22-3.61L72.6 27.69l7.65 3.83zm8.71 4.36L56.05 52.37c-.03.02-.05.04-.08.06L49.1 49l32.41-16.85 7.45 3.73zM65.09 23.94l6.25 3.13-31.98 17.06-7.33-3.66 33.06-16.53zm33.05 46.12L65.09 86.59 32.03 70.06l13.52-6.76 19.28 9.64a.583.583 0 0 0 .52 0l19.28-9.64 13.51 6.76zm-13.77-7.91l-19.28 9.64-33.05-16.53 13.52-6.75 19.28 9.64a.583.583 0 0 0 .52 0l19.28-9.64 13.52 6.75-13.79 6.89z"></path>
		</symbol>
	
		<symbol id="smart_icon5" viewBox="0 0 100 100">
			<style>.st0{fill:#08465e}.st1{fill:#fff}</style><circle class="st0" cx="44.29" cy="50.47" r="44.29"></circle><g id="XMLID_607_"><g id="XMLID_608_"><path class="st1" d="M71.54 59.35a.5.5 0 0 1-.31-.1.533.533 0 0 1-.23-.45v-2.97c0-.3.24-.55.55-.55h1.65v-7.92c0-.18.09-.35.24-.45 1.12-.77 2.06-1.73 2.79-2.86.14-.21.41-.3.65-.21l16.38 6.09c.21.08.35.27.36.49l.01.24c.01.23-.13.45-.35.53l-21.53 8.12c-.08.02-.14.04-.21.04zm.55-2.97v1.63l19.73-7.44-14.94-5.55c-.72 1.01-1.59 1.89-2.6 2.63v8.19c0 .3-.24.55-.55.55h-1.64z"></path><path class="st1" d="M71.54 56.38h-8.21c-.3 0-.55-.24-.55-.55s.24-.55.55-.55h8.21c.3 0 .55.24.55.55s-.25.55-.55.55zm-4.15 31a.542.542 0 0 1-.54-.54l-.25-20.93c0-.15.06-.29.16-.39.1-.1.24-.16.39-.16l3-.01c.2 0 .38.11.48.28l4.1 7.27 18.14-7.29a.544.544 0 0 1 .75.5v10.56c0 .22-.14.43-.35.51L67.59 87.34c-.06.02-.13.04-.2.04zm.31-20.93l.22 19.58 24.6-9.74v-9.38l-17.84 7.17c-.25.1-.55 0-.68-.24l-4.18-7.4-2.12.01zm25.37 10.22z"></path><path class="st1" d="M67.39 87.38c-.07 0-.13-.01-.2-.04L40.91 77.18a.543.543 0 0 1-.35-.51V66.2a.542.542 0 0 1 .75-.5l17.78 7.2 4.35-7.26c.1-.16.27-.26.47-.27l3.24-.02c.29-.02.55.24.55.54l.24 20.93c0 .18-.09.35-.24.46-.09.06-.2.1-.31.1zM41.66 76.29l25.18 9.74-.22-19.58-2.39.01-4.44 7.39c-.14.23-.42.33-.67.23l-17.46-7.07v9.28zm25.4-15.13c-.06 0-.11-.01-.16-.03l-3.88-1.48a.552.552 0 0 1-.32-.7l.09-.23v-2.87c0-.3.24-.55.55-.55h8.21c.3 0 .55.24.55.55v2.97c0 .23-.14.43-.35.51l-4.12 1.55c-.05.08-.11.15-.2.2-.11.04-.25.08-.37.08zm-3.18-2.35l3.03 1.16L71 58.42v-2.04h-7.11v2.43zm-.55 0zm10.41-5.04h-12.6c-.3 0-.55-.24-.55-.55v-2.11c0-.3.24-.55.55-.55h12.6c.3 0 .55.24.55.55v2.11c-.01.3-.25.55-.55.55zm-12.06-1.09h11.5v-1.02h-11.5v1.02z"></path><path class="st1" d="M73.74 51.65h-5.8a.542.542 0 0 1-.5-.33c-.01.03-.03.06-.05.09-.1.15-.27.24-.45.24h-5.8c-.3 0-.55-.24-.55-.55v-3.46c-1.19-.87-2.23-1.98-3.01-3.23a11.548 11.548 0 0 1-1.76-6.15c0-6.41 5.21-11.62 11.61-11.62 6.4 0 11.61 5.21 11.61 11.62 0 2.29-.66 4.5-1.92 6.39a11.57 11.57 0 0 1-2.85 2.99v3.46c.01.31-.23.55-.53.55zm-9.89-10.02l3.59 9.25 3.58-9.27-1.38.18a.536.536 0 0 1-.53-.25l-1.74-2.81-1.69 2.82c-.11.19-.33.29-.55.26l-1.28-.18zm4.88 8.93h4.46v-3.2c0-.18.09-.35.24-.45 1.12-.77 2.06-1.73 2.79-2.86a10.44 10.44 0 0 0 1.74-5.79c0-5.81-4.72-10.53-10.52-10.53s-10.52 4.72-10.52 10.53c0 1.98.55 3.9 1.6 5.57.75 1.21 1.76 2.27 2.94 3.08.15.1.24.27.24.45v3.2h4.46l-3.65-9.4a.556.556 0 0 1 .08-.54c.12-.15.31-.23.5-.2l1.85.26 1.97-3.28c.1-.16.27-.26.46-.27.2-.02.37.1.47.26l2.03 3.27 1.94-.25c.19-.03.38.05.5.2.12.15.15.35.08.53l-3.66 9.42z"></path><path class="st1" d="M67.94 51.65h-1c-.23 0-.43-.14-.51-.35L62.5 41.16a.556.556 0 0 1 .08-.54c.12-.15.31-.23.5-.2l1.85.26 1.97-3.28c.1-.16.27-.26.46-.27.2-.02.37.1.47.26l2.03 3.27 1.94-.25c.19-.03.38.05.5.2.12.15.15.35.08.53L68.45 51.3c-.08.21-.29.35-.51.35zm-.63-1.09h.25l3.46-8.94-1.38.18a.536.536 0 0 1-.53-.25l-1.74-2.81-1.69 2.82c-.11.19-.33.29-.55.26l-1.28-.18 3.46 8.92zm6.43 5.82h-2.19c-.03 0-.06 0-.09-.01h-8.03c-.03 0-.06.01-.09.01h-2.2c-.3 0-.55-.24-.55-.55v-2.61c0-.3.24-.55.55-.55h12.6c.3 0 .55.24.55.55v2.61c-.01.31-.25.55-.55.55zm-2.11-1.09h1.56v-1.52h-11.5v1.52h1.56c.03 0 .06-.01.09-.01h8.21c.02 0 .05 0 .08.01z"></path><path class="st1" d="M63.21 59.68c-.07 0-.13-.01-.2-.04l-22.1-8.45a.555.555 0 0 1-.31-.31l-.11-.28a.554.554 0 0 1 .01-.42c.06-.13.17-.24.31-.29l17.04-6.27c.24-.09.53.01.66.22.75 1.2 1.76 2.27 2.93 3.07.15.1.24.27.24.45v7.92h1.65c.3 0 .55.24.55.55v2.97c0 .07-.01.13-.04.19l-.12.33a.48.48 0 0 1-.29.3.35.35 0 0 1-.22.06zm-20.97-9.15l20.54 7.86v-2.01h-1.65c-.3 0-.55-.24-.55-.55v-8.19c-1.07-.78-2.02-1.76-2.76-2.86l-15.58 5.75z"></path><path class="st1" d="M66.85 25.56c-.3 0-.55-.24-.55-.55v-3.58c0-.3.24-.55.55-.55s.55.24.55.55v3.58c-.01.3-.25.55-.55.55zm4.28.41c-.05 0-.09-.01-.14-.02a.559.559 0 0 1-.39-.67l.93-3.46c.08-.29.38-.47.67-.38.29.08.46.38.39.67l-.93 3.46c-.07.23-.29.4-.53.4zm4.05 1.5c-.09 0-.19-.02-.27-.07a.55.55 0 0 1-.2-.75l1.79-3.1a.55.55 0 0 1 .75-.2c.26.15.35.48.2.75l-1.79 3.1c-.11.17-.29.27-.48.27zm3.51 2.51c-.14 0-.28-.05-.38-.16a.54.54 0 0 1 0-.77l2.52-2.54a.55.55 0 0 1 .77 0c.21.21.22.56 0 .77l-2.52 2.54c-.11.11-.25.16-.39.16zm-23.34.83c-.14 0-.28-.05-.39-.16l-2.53-2.53a.55.55 0 0 1 0-.77.55.55 0 0 1 .77 0l2.53 2.53c.21.21.21.56 0 .77-.11.1-.24.16-.38.16zm3.32-2.74c-.19 0-.37-.1-.47-.27l-1.79-3.11c-.15-.26-.06-.6.2-.75.26-.15.6-.06.75.2l1.79 3.11c.15.26.06.6-.2.75-.09.05-.18.07-.28.07zm3.93-1.8c-.24 0-.46-.16-.53-.41l-.92-3.46a.55.55 0 0 1 .39-.67c.3-.08.59.1.67.39l.92 3.46a.55.55 0 0 1-.53.69zm36.99 37.18L93.6 50.51c.03-.25-.1-.49-.34-.58L77.5 44.07c1.02-1.76 1.56-3.75 1.56-5.81 0-6.41-5.21-11.62-11.61-11.62-6.4 0-11.61 5.21-11.61 11.62 0 1.96.49 3.87 1.43 5.57l-16.41 6.05-.03.01.09.29c-.12.05-.22.14-.29.27l-6.23 13c-.07.14-.07.29-.02.43s.16.25.3.31l5.89 2.39v10.09c0 .23.14.43.35.51l26.26 10.16.01.01c.06.02.13.04.2.04h.01c.02 0 .03-.01.05-.01.05-.01.1-.01.14-.03l25.68-10.17c.21-.08.35-.28.35-.51v-10.2l5.68-2.28c.14-.06.25-.17.3-.31.05-.14.05-.29-.01-.43zm-7.77-12.88l-19.73 7.44v-1.63h1.65c.3 0 .55-.24.55-.55v-2.07h1.07c.3 0 .55-.24.55-.55 0-.3-.24-.55-.55-.55h-1.07v-1.02h1.07c.3 0 .55-.24.55-.55 0-.3-.24-.55-.55-.55h-1.07v-2.91A11.34 11.34 0 0 0 76.88 45l14.94 5.57zM65.16 64.9l1.4-2.34.03 2.8-1.71.01.28-.47zm2.5-2.3l1.48 2.62.08.14-1.52.01-.04-2.77zm-.75-2.64l-3.03-1.16v-2.42H71v2.04l-4.09 1.54zm-3.58-4.68c-.01 0-.02.01-.04.01h-1.61v-1.52h11.5v1.52h-1.61c-.01 0-.02-.01-.04-.01h-8.2zm4.61-3.63h5.25v1.02h-11.5v-1.02h6.25zm-4.09-10.02l1.28.18c.22.03.43-.07.55-.26l1.69-2.82 1.74 2.81c.11.18.33.29.53.25l1.38-.18-3.46 8.94h-.25l-3.46-8.92zm-6.93-3.36c0-5.81 4.72-10.53 10.52-10.53s10.52 4.72 10.52 10.53c0 2.07-.6 4.07-1.74 5.79-.73 1.12-1.67 2.08-2.79 2.86-.15.1-.24.27-.24.45v3.2h-4.46l3.64-9.41c.07-.18.04-.38-.08-.53a.537.537 0 0 0-.5-.2l-1.94.25-2.03-3.27a.525.525 0 0 0-.47-.26c-.19 0-.37.1-.46.27l-1.97 3.28-1.85-.26a.537.537 0 0 0-.5.2c-.12.15-.15.36-.08.54l3.65 9.4h-4.46v-3.2c0-.18-.09-.35-.24-.45-1.17-.81-2.19-1.87-2.94-3.08-1.03-1.67-1.58-3.6-1.58-5.58zm.92 6.51c.74 1.1 1.68 2.08 2.75 2.86v2.91h-1.08c-.3 0-.55.24-.55.55 0 .3.24.55.55.55h1.08v1.02h-1.08c-.3 0-.55.24-.55.55 0 .3.24.55.55.55h1.08v2.07c0 .3.24.55.55.55h1.65v2.01l-20.54-7.86 15.59-5.76zM41.32 65.7l-5.7-2.31 5.76-12.02 24.9 9.52-7.2 12-17.76-7.19zm.34 10.59v-9.28l17.46 7.07a.545.545 0 0 0 .68-.23l4.44-7.39 2.38-.01.22 19.58-25.18-9.74zm50.86 0l-24.6 9.74-.22-19.58 2.13-.01 4.18 7.4c.1.18.28.28.48.28.07 0 .14-.01.2-.04l17.84-7.17v9.38zm-17.8-3.4l-4.1-7.26v-.01l-2.74-4.86 3.86-1.46c.01 0 .01 0 .02-.01l21.02-7.93 5.57 12.02-23.63 9.51z"></path></g></g>
		</symbol>
	
		<symbol id="smart_next" viewBox="0 0 477.175 477.175">
			<path d="M360.731 229.075l-225.1-225.1c-5.3-5.3-13.8-5.3-19.1 0s-5.3 13.8 0 19.1l215.5 215.5-215.5 215.5c-5.3 5.3-5.3 13.8 0 19.1 2.6 2.6 6.1 4 9.5 4 3.4 0 6.9-1.3 9.5-4l225.1-225.1c5.3-5.2 5.3-13.8.1-19z"></path>
		</symbol>
	
		<symbol id="smart_phone" viewBox="0 0 500 500">
			<defs><style>.cls-1{fill:#fff}</style></defs><title>телефон-01</title><path class="cls-1" d="M358.68 500c-55 0-135.28-23.95-234-121.78-.19-.16-.39-.33-.57-.51l-.92-.94a8.43 8.43 0 0 1-.83-.95C-66.55 185.68 18.62 63.7 22.35 58.6l22.43-36.85a7.64 7.64 0 0 1 .47-.69 52.8 52.8 0 0 1 79.57-5.65l44.67 44.67a53 53 0 0 1 4.9 69l-30 47c.11 0-11 30.22 69 110.54 80.85 80.53 110.91 68.71 111.21 68.56l46.84-30c20.34-15.3 50-13.2 68.48 5.27l44.66 44.67a52.8 52.8 0 0 1-5.65 79.57L440.75 478c-2.17 1.59-31.33 22-82.07 22zM135.37 364.59c.31.24.61.5.9.77 179 177.81 290.25 101.57 294.91 98.24l38-23.2a35.58 35.58 0 0 0 3.12-53l-44.66-44.67a35.68 35.68 0 0 0-46.41-3.3l-48.07 30.77c-6.58 3.87-42.5 17.9-132-71.31-89.25-89.62-75.24-125.56-71.52-131.89l30.56-47.8a35.89 35.89 0 0 0-2.93-46.94L112.6 27.62a35.5 35.5 0 0 0-53.27 3.49L36.71 68.2C33 73.41-43.23 184.63 134.58 363.67c.16.17.32.34.47.52l.36.34zm243.77-130.9a8.64 8.64 0 0 1-6.14-14.75 62.59 62.59 0 0 0-88.51-88.52 8.64 8.64 0 1 1-12.19-12.22 79.87 79.87 0 1 1 113 113 8.61 8.61 0 0 1-6.16 2.49z"></path><path class="cls-1" d="M411.15 265.69a8.64 8.64 0 0 1-6.15-14.75A107.84 107.84 0 1 0 252.52 98.43a8.64 8.64 0 0 1-12.22-12.22 125.13 125.13 0 1 1 177 177 8.68 8.68 0 0 1-6.15 2.48z"></path><path class="cls-1" d="M443.74 298.28a8.64 8.64 0 0 1-6.11-14.75c60-60 60-157.68 0-217.7s-157.68-60-217.7 0a8.64 8.64 0 1 1-12.22-12.22c66.77-66.77 175.41-66.76 242.15 0s66.76 175.39 0 242.15a8.68 8.68 0 0 1-6.12 2.52z"></path>
		</symbol>
	
		<symbol id="smart_test" viewBox="0 0 85 101.6">
			<style>.st0{fill:#fff}</style><path class="st0" d="M12.1 12.5h25.5c.5 0 .8-.4.8-.8 0-.5-.4-.8-.8-.8H12.1c-.5 0-.8.4-.8.8s.4.8.8.8zm0 10.8h32.8c.5 0 .8-.4.8-.8s-.4-.8-.8-.8H12.1c-.5 0-.8.4-.8.8 0 .5.4.8.8.8zm48.7 33c0-.5-.4-.8-.8-.8H12.1c-.5 0-.8.4-.8.8 0 .5.4.8.8.8h47.8c.5 0 .9-.4.9-.8zm-48.7-9.6h47.8c.5 0 .8-.4.8-.8s-.4-.8-.8-.8H12.1c-.5 0-.8.4-.8.8s.4.8.8.8zm0-10.7h47.8c.5 0 .8-.4.8-.8s-.4-.8-.8-.8H12.1c-.5 0-.8.4-.8.8s.4.8.8.8z"></path><path class="st0" d="M74.8 68.4V26.8c.4-.1.6-.4.6-.8 0-.3-.2-.5-.4-.7L50.6 1 50 .3c0-.1-.3-.2-.5-.2H.8C.4.1 0 .6 0 1v90.3c0 .5.4.8.8.8h51.3c2.8 5.6 8.7 9.4 15.4 9.4 9.5 0 17.4-7.8 17.4-17.5.1-6.8-4.1-12.8-10.1-15.6zM51 3.6l21.6 21.6H51V3.6zM1.6 90.5V1.8h47.5l.1.1V26c0 .5.4.8.8.8h23v40.9c-.1 0-.1 0-.2-.1-.2-.1-.4-.1-.6-.2-.3-.1-.7-.2-1-.3-.2 0-.4-.1-.5-.1-.4-.1-.7-.1-1.1-.2-.2 0-.3 0-.5-.1-.5-.1-1.1-.1-1.6-.1-9.5 0-17.4 7.8-17.4 17.4 0 .6 0 1.1.1 1.7 0 .2 0 .3.1.5.1.4.1.8.2 1.2 0 .2.1.4.1.5.1.4.2.7.3 1.1.1.2.1.4.2.6.1.2.1.5.2.7H1.6v.2zm66 9.5c-6.4 0-12-3.9-14.4-9.4-.1-.3-.2-.5-.3-.8-.1-.2-.2-.5-.3-.7-.1-.3-.2-.5-.2-.8-.1-.3-.1-.5-.2-.7-.1-.3-.1-.6-.1-.9 0-.2-.1-.5-.1-.7-.1-.5-.1-1.1-.1-1.6 0-8.6 7.1-15.7 15.7-15.7.5 0 1.1 0 1.6.1.1 0 .3 0 .4.1.4 0 .8.1 1.2.2.3.1.5.1.8.2.2.1.5.1.7.2.5.2 1 .3 1.4.5 5.7 2.4 9.6 8 9.6 14.5 0 8.4-7 15.5-15.7 15.5z"></path><path class="st0" d="M74.2 81.5L66 85.3 60.9 83c-.4-.2-.9 0-1.1.4-.2.4 0 .9.4 1.1l5.4 2.5c.1.1.2.1.4.1.1 0 .2 0 .3-.1l8.5-4c.4-.2.6-.7.4-1.1-.1-.5-.5-.6-1-.4z"></path>
		</symbol>
	
</svg>
